Coordinates
version=1
nRows=14
nColumns=36
inDegrees=yes

Units are S.I. units (second, meters, Newtons, ...)
If the header above contains a line with 'inDegrees', this indicates whether rotational values are in degrees (yes) or radians (no).

endheader
time	pelvis_tilt	pelvis_list	pelvis_rotation	pelvis_tx	pelvis_ty	pelvis_tz	hip_flexion_r	hip_adduction_r	hip_rotation_r	knee_angle_r	knee_angle_r_beta	ankle_angle_r	subtalar_angle_r	mtp_angle_r	hip_flexion_l	hip_adduction_l	hip_rotation_l	knee_angle_l	knee_angle_l_beta	ankle_angle_l	subtalar_angle_l	mtp_angle_l	lumbar_extension	lumbar_bending	lumbar_rotation	arm_flex_r	arm_add_r	arm_rot_r	elbow_flex_r	pro_sup_r	arm_flex_l	arm_add_l	arm_rot_l	elbow_flex_l	pro_sup_l
      0.00000000	     -9.47557293	     -1.53548889	      0.58037115	     -0.94789898	      1.22285727	     -0.12077370	     21.93366568	     -1.11092487	      6.61487745	     24.39442769	      0.42576308	      0.32452935	    -26.34761902	     -6.51993230	     18.72772726	     -0.02435624	      2.01945133	     18.62776715	      0.32511587	      8.20797717	    -18.45961123	     -6.51993230	     -3.99667783	      1.25290712	     -0.67351630	     10.37865977	     -7.75154346	     36.06391399	     20.29776121	     67.34768356	      4.47929716	     -5.47073876	     29.67181680	     19.39190400	     60.15523507
      0.00416670	    -10.79797667	     -0.80844138	      0.35977664	     -0.94760946	      1.22167705	     -0.12052449	     24.68463311	     -1.57235541	      7.56068776	     27.16534155	      0.47412465	      5.17479686	    -24.49330228	     -6.62783209	     21.67253719	      1.35441425	      2.98842891	     21.31087184	      0.37194488	      9.14579528	    -19.55999693	     -6.62783209	     -2.30736667	      0.72594506	     -0.29284148	     10.83387572	     -7.84137417	     41.74212867	     18.55807512	     70.33027121	      4.36666713	     -5.84453863	     34.10387901	     19.23389551	     61.52876825
      0.00833330	    -11.41280348	      0.39503343	     -0.24836219	     -0.93978657	      1.22103299	     -0.12464886	     24.67886947	     -3.00617863	      7.57680782	     26.35566827	      0.45999319	      4.90858022	    -24.91564579	     -6.68860479	     21.59080974	      2.66207548	      3.04898824	     20.79173738	      0.36288427	      7.74679358	    -22.31130601	     -6.68860479	     -0.87561025	     -0.72831087	      0.26746225	     10.17444735	     -7.81456386	     44.81070965	     18.05656922	     71.60702966	      4.00842508	     -6.43304448	     37.43099961	     19.17802895	     62.57888757
      0.01250000	    -11.00614720	      1.17790051	     -0.77692434	     -0.94019403	      1.22191670	     -0.12369931	     24.64489343	     -3.59699060	      8.55166202	     27.06652958	      0.47240006	      4.83612171	    -25.63115376	     -6.77203056	     20.45274240	      3.59819258	      3.29134037	     20.10722223	      0.35093723	      7.37181131	    -24.28569859	     -6.77203056	     -1.23701577	     -1.46374589	      0.64170107	     10.49072409	     -7.76912186	     47.70301840	     17.96704820	     72.29095056	      4.25615044	     -6.59073003	     40.97768150	     18.69557301	     63.63105389
      0.01666670	    -11.02481792	      1.45989919	     -1.12561221	     -0.93988079	      1.22244299	     -0.12328786	     24.64162390	     -3.75696607	      9.06497431	     26.98088697	      0.47090531	      4.39136240	    -26.19255687	     -6.87867724	     19.81097072	      3.98311176	      3.99333873	     19.02457996	      0.33204156	      6.17629885	    -26.48982787	     -6.87867724	     -1.05481892	     -1.71704466	      1.02308678	     10.45919179	     -7.59499415	     49.13042334	     17.55036916	     72.35812130	      4.47276967	     -6.48217292	     43.86814254	     17.93823602	     64.41498092
      0.02083330	    -11.01462058	      1.81808523	     -1.47280120	     -0.94015437	      1.22273425	     -0.12256725	     24.95833911	     -3.81883758	      9.82530919	     27.40817181	      0.47836284	      4.10701616	    -26.71535790	     -7.09542272	     19.32944910	      4.38126317	      4.25440659	     18.27530050	      0.31896417	      5.45218756	    -27.90413838	     -7.09542272	     -0.93136440	     -2.09017251	      1.27579804	     10.48131034	     -7.24950707	     50.04399506	     17.17574772	     71.72207865	      4.54340030	     -6.41257368	     45.80983303	     17.02319451	     64.58301237
      0.02500000	    -10.86378382	      2.04158413	     -1.89479437	     -0.93977358	      1.22606015	     -0.12232561	     25.12113319	     -3.79676972	     10.35878477	     27.57086495	      0.48120237	      3.61848778	    -27.43670492	     -7.10834409	     19.06634829	      4.55372507	      4.35649990	     17.93431918	      0.31301292	      5.03394993	    -28.41566558	     -7.10834409	     -1.06384197	     -2.30955669	      1.29496098	     10.53611527	     -6.66233579	     49.66656879	     16.39206278	     71.37755279	      4.48559827	     -6.04886357	     45.57203423	     15.98609315	     64.42916728
      0.02916670	    -10.18406442	      1.98504360	     -2.06012930	     -0.93994720	      1.22626438	     -0.12194492	     24.35847997	     -3.56764586	     10.80696061	     27.28138534	      0.47615000	      2.56420325	    -28.53175363	     -7.14417773	     18.08235746	      4.51087263	      4.54710597	     17.48222283	      0.30512235	      3.80533538	    -29.41726016	     -7.14417773	     -1.91331216	     -2.20767754	      1.50432602	     10.60549800	     -6.75076579	     49.00251898	     16.94356267	     71.12863152	      4.60052553	     -6.02777715	     45.40139505	     16.19091655	     64.44560488
      0.03333330	    -10.19645004	      2.09227965	     -2.26891354	     -0.93989204	      1.22579752	     -0.12173531	     24.35042885	     -3.57883819	     10.80211276	     27.12968959	      0.47350241	      2.46659041	    -28.71574770	     -7.17567670	     18.10693123	      4.51465967	      4.32340014	     17.44122092	      0.30440673	      3.26278426	    -29.55306737	     -7.17567670	     -1.72942428	     -2.33601401	      1.73872510	     10.53905781	     -6.40634687	     48.26285985	     16.42878152	     70.47110721	      4.72317681	     -5.89019688	     44.75958580	     15.56706755	     64.14865893
      0.03750000	     -9.82844911	      2.01771913	     -2.48091634	     -0.94019154	      1.22625769	     -0.12149482	     23.79377718	     -3.46748885	     10.99849087	     26.72319607	      0.46640776	      2.13059315	    -29.09828805	     -7.21383636	     17.70914612	      4.36636298	      4.28359292	     17.37600590	      0.30326851	      2.64828390	    -30.06069949	     -7.21383636	     -2.23391721	     -2.21690985	      2.13362209	     10.63878820	     -6.42948252	     47.49058824	     16.48460305	     69.91659859	      4.95514098	     -5.81179316	     43.98938728	     15.49812328	     63.86551872
      0.04166670	     -9.74273685	      1.93150613	     -2.55172085	     -0.94008263	      1.22666102	     -0.12158221	     23.58231308	     -3.38103777	     11.02950429	     26.48057588	      0.46217324	      1.72154012	    -29.52095995	     -7.23387067	     17.60385531	      4.28205524	      4.32865767	     17.41010457	      0.30386365	      2.34348187	    -30.55747421	     -7.23387067	     -2.18899466	     -2.05921909	      2.30745411	     10.51415267	     -6.53413568	     46.79106534	     16.72738789	     69.76427965	      4.98267351	     -5.81773014	     43.22782680	     15.65483649	     63.77132797
      0.04583330	     -9.40350896	      2.03492290	     -2.81034456	     -0.94046291	      1.22704526	     -0.12122089	     23.20358288	     -3.35977954	     11.30434897	     26.35083955	      0.45990891	      1.90388946	    -29.58503413	     -7.27067334	     17.13387363	      4.36830392	      4.12770304	     17.16451524	      0.29957731	      2.44654145	    -30.47093852	     -7.27067334	     -2.73137724	     -2.25817419	      2.53023569	     10.34410721	     -6.43147449	     45.96433405	     17.05833445	     69.54545079	      4.99665812	     -5.86916628	     42.30700454	     15.97387006	     63.53180709
      0.05000000	     -9.21329130	      1.89051282	     -2.57070388	     -0.93440128	      1.22367507	     -0.12673382	     22.64304991	     -3.44507941	     10.86219648	     25.99474637	      0.45369391	      1.71404563	    -29.99887428	     -7.39077264	     16.87517690	      4.40374406	      4.52845533	     17.27234560	      0.30145930	      2.36970517	    -30.86685532	     -7.39077264	     -2.91466179	     -2.03458210	      2.31380657	      9.51436027	     -6.06452125	     38.16625467	     17.48489581	     81.66391324	      4.59247714	     -5.50976483	     37.37155600	     16.31744832	     69.20911823
      0.05416670	     -9.10070308	      1.96660011	     -2.59394715	     -0.93478824	      1.22787763	     -0.12675419	     22.44858992	     -3.63210090	     10.89125395	     26.21609899	      0.45755724	      1.71801977	    -30.06500542	     -7.39099340	     16.76119470	      4.50594936	      4.55917311	     17.25565169	      0.30116794	      2.27284236	    -30.87066297	     -7.39099340	     -2.84513971	     -2.01004666	      2.18153163	      9.00120560	     -5.90231812	     38.16228398	     17.41315375	     81.66077642	      4.43405216	     -5.39528972	     37.34617923	     16.32116149	     69.20182873
